<svg width="54" height="52" viewBox="0 0 54 52" fill="none" xmlns="http://www.w3.org/2000/svg">
<path fill-rule="evenodd" clip-rule="evenodd" d="M53.8431 25.9622C53.8431 39.9627 42.0095 51.3124 27.412 51.3124C12.8145 51.3124 0.980835 39.9627 0.980835 25.9622C0.980835 11.9616 12.8145 0.611938 27.412 0.611938C42.0095 0.611938 53.8431 11.9616 53.8431 25.9622ZM28.3591 19.3266C25.7885 20.3522 20.6503 22.4748 12.9451 25.6945C11.6939 26.1717 11.0385 26.6386 10.9788 27.0951C10.878 27.8666 11.8853 28.1704 13.257 28.584C13.4436 28.6404 13.6369 28.6987 13.8351 28.7604C15.1846 29.1812 17 29.6734 17.9437 29.6929C18.7997 29.7106 19.7552 29.3722 20.8101 28.6774C28.0093 24.0165 31.7255 21.6607 31.9588 21.6099C32.1236 21.5741 32.3515 21.529 32.5062 21.6608C32.6606 21.7925 32.6456 22.042 32.6291 22.1089C32.5293 22.5169 28.5752 26.0427 26.529 27.8672C25.8911 28.4359 25.4387 28.8394 25.3462 28.9315C25.1389 29.1381 24.9277 29.3333 24.7248 29.5209C23.4711 30.6801 22.5309 31.5494 24.7768 32.969C25.8563 33.6511 26.7199 34.2152 27.5816 34.7779C28.5225 35.3927 29.4611 36.0057 30.6754 36.7692C30.9848 36.9638 31.2802 37.1657 31.5681 37.3624C32.6632 38.1113 33.6471 38.7839 34.8625 38.6766C35.5689 38.6143 36.2984 37.9773 36.6688 36.0778C37.5444 31.5882 39.2655 21.8607 39.6633 17.8522C39.6983 17.501 39.6545 17.0515 39.6192 16.8542C39.584 16.6569 39.5104 16.3758 39.243 16.1677C38.9263 15.9212 38.4375 15.8693 38.2188 15.873C37.2246 15.8898 35.6995 16.3984 28.3591 19.3266Z" fill="#E3E3E3"/>
</svg>
