<svg width="54" height="52" viewBox="0 0 54 52" fill="none" xmlns="http://www.w3.org/2000/svg">
<path d="M47.375 0.611938H5.84033C2.71343 0.611938 0.176514 3.04511 0.176514 6.04413V45.8802C0.176514 48.8792 2.71343 51.3124 5.84033 51.3124H47.375C50.5019 51.3124 53.0388 48.8792 53.0388 45.8802V6.04413C53.0388 3.04511 50.5019 0.611938 47.375 0.611938ZM32.8969 44.0355C31.9057 44.2053 31.5399 43.6168 31.5399 43.1302C31.5399 42.519 31.5635 39.3955 31.5635 36.8718C31.5635 35.1064 30.9499 33.986 30.2301 33.3975C34.596 32.9335 39.1979 32.3563 39.1979 25.1247C39.1979 23.065 38.4309 22.0352 37.1801 20.7111C37.3807 20.2244 38.0533 18.2213 36.9795 15.6184C35.3394 15.1317 31.5871 17.6441 31.5871 17.6441C30.0296 17.2254 28.3422 17.0104 26.6785 17.0104C25.0147 17.0104 23.3274 17.2254 21.7698 17.6441C21.7698 17.6441 18.0175 15.1317 16.3774 15.6184C15.3036 18.21 15.9644 20.2131 16.1768 20.7111C14.926 22.0352 14.3361 23.065 14.3361 25.1247C14.3361 32.3224 18.7373 32.9335 23.1032 33.3975C22.5368 33.8841 22.0294 34.7216 21.8524 35.9212C20.7315 36.4078 17.8641 37.2453 16.1532 34.3481C15.0794 32.56 13.1443 32.4129 13.1443 32.4129C11.2328 32.3903 13.0145 33.5672 13.0145 33.5672C14.2889 34.1331 15.1856 36.306 15.1856 36.306C16.3302 39.6671 21.8052 38.5354 21.8052 38.5354C21.8052 40.1085 21.8288 42.6662 21.8288 43.1302C21.8288 43.6168 21.4748 44.2053 20.4719 44.0355C12.6841 41.5345 7.23269 34.4273 7.23269 26.1206C7.23269 15.7315 15.516 7.84355 26.3481 7.84355C37.1801 7.84355 45.959 15.7315 45.959 26.1206C45.9708 34.4273 40.6846 41.5458 32.8969 44.0355ZM21.3214 37.1208C21.0972 37.1661 20.8848 37.0755 20.8613 36.9284C20.8377 36.7587 20.991 36.6115 21.2152 36.5663C21.4394 36.5436 21.6518 36.6342 21.6754 36.7813C21.7108 36.9284 21.5574 37.0755 21.3214 37.1208ZM20.2005 37.019C20.2005 37.1661 20.0235 37.2906 19.7875 37.2906C19.5279 37.3132 19.3509 37.1887 19.3509 37.019C19.3509 36.8718 19.5279 36.7473 19.7639 36.7473C19.9881 36.7247 20.2005 36.8492 20.2005 37.019ZM18.5839 36.8945C18.5367 37.0416 18.3007 37.1095 18.1001 37.0416C17.8759 36.9963 17.7226 36.8266 17.7698 36.6794C17.8169 36.5323 18.0529 36.4644 18.2535 36.5097C18.4895 36.5776 18.6429 36.7473 18.5839 36.8945ZM17.1326 36.2833C17.0264 36.4078 16.8022 36.3852 16.6252 36.2154C16.4482 36.0683 16.401 35.8533 16.519 35.7514C16.6252 35.627 16.8494 35.6496 17.0264 35.8193C17.1798 35.9665 17.2388 36.1928 17.1326 36.2833ZM16.0588 35.2535C15.9526 35.3214 15.752 35.2535 15.6222 35.0837C15.4924 34.914 15.4924 34.7216 15.6222 34.6424C15.752 34.5405 15.9526 34.6197 16.0588 34.7895C16.1886 34.9592 16.1886 35.163 16.0588 35.2535ZM15.2918 34.1557C15.1856 34.2576 15.0086 34.201 14.8788 34.0878C14.749 33.9407 14.7254 33.771 14.8316 33.6917C14.9378 33.5899 15.1148 33.6465 15.2446 33.7596C15.3744 33.9068 15.398 34.0765 15.2918 34.1557ZM14.5013 33.3183C14.4541 33.4201 14.3007 33.4428 14.1709 33.3635C14.0175 33.2956 13.9467 33.1711 13.9939 33.0693C14.0411 33.0014 14.1709 32.9674 14.3243 33.024C14.4777 33.1032 14.5485 33.2277 14.5013 33.3183Z" fill="#E3E3E3"/>
</svg>
