<svg width="53" height="52" viewBox="0 0 53 52" fill="none" xmlns="http://www.w3.org/2000/svg">
<path d="M34.6232 0.611938H18.3966C3.58901 0.611938 0.0787354 3.97866 0.0787354 18.1807V33.7437C0.0787354 47.9457 3.58901 51.3124 18.3966 51.3124H34.6232C49.4308 51.3124 52.941 47.9457 52.941 33.7437V18.1807C52.941 3.97866 49.3961 0.611938 34.6232 0.611938ZM42.7538 36.7793H38.9164C37.4628 36.7793 37.0151 35.6734 34.4002 33.1321C32.1288 31.0202 31.1228 30.7398 30.5628 30.7398C29.7716 30.7398 29.5469 30.9536 29.5469 31.9946V35.3201C29.5469 36.2121 29.2545 36.7476 26.7932 36.7476C22.7229 36.7476 18.2066 34.3869 15.04 29.9888C10.2643 23.5437 8.95767 18.7162 8.95767 17.7181C8.95767 17.181 9.18068 16.6787 10.2561 16.6787H14.1017C15.0746 16.6787 15.4447 17.1081 15.823 18.1062C17.7243 23.371 20.891 27.983 22.1976 27.983C22.68 27.983 22.903 27.7691 22.903 26.5888V21.1513C22.756 18.6433 21.3799 18.4278 21.3799 17.5374C21.3799 17.1081 21.75 16.6787 22.343 16.6787H28.3906C29.2083 16.6787 29.5089 17.1081 29.5089 18.0318V25.3673C29.5089 26.1594 29.8789 26.4399 30.1019 26.4399C30.5843 26.4399 30.9973 26.1594 31.8909 25.3007C34.6529 22.3301 36.6319 17.7497 36.6319 17.7497C36.8896 17.2127 37.3372 16.7104 38.3102 16.7104H42.1558C43.3088 16.7104 43.5665 17.2792 43.3088 18.0714C42.8265 20.2166 38.1202 26.5872 38.1202 26.5872C37.7155 27.2304 37.5602 27.5109 38.1202 28.2286C38.5332 28.7657 39.8762 29.8795 40.7699 30.8776C42.4135 32.6679 43.6772 34.1699 44.0142 35.2092C44.3925 36.2406 43.8341 36.7777 42.7488 36.7777L42.7538 36.7793Z" fill="#E3E3E3"/>
</svg>
